<mxfile host="app.diagrams.net" modified="2023-04-25T08:00:40.938Z" agent="Mozilla/5.0 (X11; Linux x86_64) AppleWebKit/537.36 (KHTML, like Gecko) Chrome/111.0.0.0 Safari/537.36" etag="cQ0LCpofRAGLFqlyAMz2" version="21.2.1" type="device">
  <diagram name="Page-1" id="64Jat8C_JkewhNtmr-al">
    <mxGraphModel dx="1295" dy="759" grid="1" gridSize="10" guides="1" tooltips="1" connect="1" arrows="1" fold="1" page="1" pageScale="1" pageWidth="850" pageHeight="1100" math="0" shadow="0">
      <root>
        <mxCell id="0" />
        <mxCell id="1" parent="0" />
        <mxCell id="0fRn0nSYquljpEjIdXTI-23" value="" style="rounded=0;whiteSpace=wrap;html=1;" vertex="1" parent="1">
          <mxGeometry x="207.5" y="588" width="352.5" height="220" as="geometry" />
        </mxCell>
        <mxCell id="0fRn0nSYquljpEjIdXTI-40" value="" style="rounded=0;whiteSpace=wrap;html=1;" vertex="1" parent="1">
          <mxGeometry x="458" y="721" width="60" height="65" as="geometry" />
        </mxCell>
        <mxCell id="0fRn0nSYquljpEjIdXTI-45" style="edgeStyle=orthogonalEdgeStyle;rounded=0;orthogonalLoop=1;jettySize=auto;html=1;entryX=0.5;entryY=0;entryDx=0;entryDy=0;" edge="1" parent="1" source="0fRn0nSYquljpEjIdXTI-39" target="0fRn0nSYquljpEjIdXTI-40">
          <mxGeometry relative="1" as="geometry" />
        </mxCell>
        <mxCell id="0fRn0nSYquljpEjIdXTI-39" value="" style="rounded=0;whiteSpace=wrap;html=1;" vertex="1" parent="1">
          <mxGeometry x="458" y="630.5" width="60" height="30" as="geometry" />
        </mxCell>
        <mxCell id="0fRn0nSYquljpEjIdXTI-9" value="" style="rounded=0;whiteSpace=wrap;html=1;" vertex="1" parent="1">
          <mxGeometry x="207.5" y="150" width="352.5" height="220" as="geometry" />
        </mxCell>
        <mxCell id="0fRn0nSYquljpEjIdXTI-1" value="&lt;b&gt;ROS&lt;/b&gt;" style="text;html=1;strokeColor=none;fillColor=none;align=center;verticalAlign=middle;whiteSpace=wrap;rounded=0;" vertex="1" parent="1">
          <mxGeometry x="190" y="120" width="60" height="30" as="geometry" />
        </mxCell>
        <mxCell id="0fRn0nSYquljpEjIdXTI-2" value="&lt;b&gt;Master&lt;/b&gt;" style="text;html=1;strokeColor=none;fillColor=none;align=center;verticalAlign=middle;whiteSpace=wrap;rounded=0;" vertex="1" parent="1">
          <mxGeometry x="280" y="260" width="60" height="30" as="geometry" />
        </mxCell>
        <mxCell id="0fRn0nSYquljpEjIdXTI-3" value="&lt;b&gt;Server0&lt;/b&gt;" style="text;html=1;strokeColor=none;fillColor=none;align=center;verticalAlign=middle;whiteSpace=wrap;rounded=0;" vertex="1" parent="1">
          <mxGeometry x="395" y="220" width="60" height="30" as="geometry" />
        </mxCell>
        <mxCell id="0fRn0nSYquljpEjIdXTI-4" value="&lt;b&gt;Server1&lt;/b&gt;" style="text;html=1;strokeColor=none;fillColor=none;align=center;verticalAlign=middle;whiteSpace=wrap;rounded=0;" vertex="1" parent="1">
          <mxGeometry x="395.3" y="330" width="60" height="30" as="geometry" />
        </mxCell>
        <mxCell id="0fRn0nSYquljpEjIdXTI-6" value="" style="image;points=[];aspect=fixed;html=1;align=center;shadow=0;dashed=0;image=img/lib/allied_telesis/computer_and_terminals/Server_Desktop.svg;" vertex="1" parent="1">
          <mxGeometry x="288.7" y="206" width="42.599999999999994" height="54" as="geometry" />
        </mxCell>
        <mxCell id="0fRn0nSYquljpEjIdXTI-7" value="" style="image;points=[];aspect=fixed;html=1;align=center;shadow=0;dashed=0;image=img/lib/allied_telesis/computer_and_terminals/Server_Desktop.svg;" vertex="1" parent="1">
          <mxGeometry x="404" y="276" width="42.599999999999994" height="54" as="geometry" />
        </mxCell>
        <mxCell id="0fRn0nSYquljpEjIdXTI-8" value="" style="image;points=[];aspect=fixed;html=1;align=center;shadow=0;dashed=0;image=img/lib/allied_telesis/computer_and_terminals/Server_Desktop.svg;" vertex="1" parent="1">
          <mxGeometry x="404" y="165" width="42.599999999999994" height="54" as="geometry" />
        </mxCell>
        <mxCell id="0fRn0nSYquljpEjIdXTI-10" value="Step 1: Create service node and master" style="text;html=1;strokeColor=none;fillColor=none;align=center;verticalAlign=middle;whiteSpace=wrap;rounded=0;" vertex="1" parent="1">
          <mxGeometry x="200" y="150" width="150" height="30" as="geometry" />
        </mxCell>
        <mxCell id="0fRn0nSYquljpEjIdXTI-11" value="" style="rounded=0;whiteSpace=wrap;html=1;" vertex="1" parent="1">
          <mxGeometry x="207.5" y="370" width="352.5" height="220" as="geometry" />
        </mxCell>
        <mxCell id="0fRn0nSYquljpEjIdXTI-12" value="&lt;b&gt;Master&lt;/b&gt;" style="text;html=1;strokeColor=none;fillColor=none;align=center;verticalAlign=middle;whiteSpace=wrap;rounded=0;" vertex="1" parent="1">
          <mxGeometry x="280" y="483" width="60" height="30" as="geometry" />
        </mxCell>
        <mxCell id="0fRn0nSYquljpEjIdXTI-13" value="&lt;b&gt;Server0&lt;/b&gt;" style="text;html=1;strokeColor=none;fillColor=none;align=center;verticalAlign=middle;whiteSpace=wrap;rounded=0;" vertex="1" parent="1">
          <mxGeometry x="394" y="437" width="60" height="30" as="geometry" />
        </mxCell>
        <mxCell id="0fRn0nSYquljpEjIdXTI-14" value="&lt;b&gt;Server1&lt;/b&gt;" style="text;html=1;strokeColor=none;fillColor=none;align=center;verticalAlign=middle;whiteSpace=wrap;rounded=0;" vertex="1" parent="1">
          <mxGeometry x="395.3" y="549" width="60" height="30" as="geometry" />
        </mxCell>
        <mxCell id="0fRn0nSYquljpEjIdXTI-19" style="edgeStyle=orthogonalEdgeStyle;rounded=0;orthogonalLoop=1;jettySize=auto;html=1;" edge="1" parent="1" source="0fRn0nSYquljpEjIdXTI-15" target="0fRn0nSYquljpEjIdXTI-17">
          <mxGeometry relative="1" as="geometry" />
        </mxCell>
        <mxCell id="0fRn0nSYquljpEjIdXTI-20" style="edgeStyle=orthogonalEdgeStyle;rounded=0;orthogonalLoop=1;jettySize=auto;html=1;entryX=-0.003;entryY=0.54;entryDx=0;entryDy=0;entryPerimeter=0;" edge="1" parent="1" source="0fRn0nSYquljpEjIdXTI-15" target="0fRn0nSYquljpEjIdXTI-16">
          <mxGeometry relative="1" as="geometry" />
        </mxCell>
        <mxCell id="0fRn0nSYquljpEjIdXTI-15" value="" style="image;points=[];aspect=fixed;html=1;align=center;shadow=0;dashed=0;image=img/lib/allied_telesis/computer_and_terminals/Server_Desktop.svg;" vertex="1" parent="1">
          <mxGeometry x="288.7" y="434" width="42.599999999999994" height="54" as="geometry" />
        </mxCell>
        <mxCell id="0fRn0nSYquljpEjIdXTI-16" value="" style="image;points=[];aspect=fixed;html=1;align=center;shadow=0;dashed=0;image=img/lib/allied_telesis/computer_and_terminals/Server_Desktop.svg;" vertex="1" parent="1">
          <mxGeometry x="404" y="504" width="42.599999999999994" height="54" as="geometry" />
        </mxCell>
        <mxCell id="0fRn0nSYquljpEjIdXTI-17" value="" style="image;points=[];aspect=fixed;html=1;align=center;shadow=0;dashed=0;image=img/lib/allied_telesis/computer_and_terminals/Server_Desktop.svg;" vertex="1" parent="1">
          <mxGeometry x="404" y="393" width="42.599999999999994" height="54" as="geometry" />
        </mxCell>
        <mxCell id="0fRn0nSYquljpEjIdXTI-18" value="Step 2: Distribute model layers, hyper_parameters, pre-trained weight and input output pub/sub policy" style="text;html=1;strokeColor=none;fillColor=none;align=left;verticalAlign=middle;whiteSpace=wrap;rounded=0;" vertex="1" parent="1">
          <mxGeometry x="207.5" y="374" width="342.5" height="30" as="geometry" />
        </mxCell>
        <mxCell id="0fRn0nSYquljpEjIdXTI-21" value="&lt;font style=&quot;font-size: 8px;&quot;&gt;[layer0]&lt;/font&gt;" style="text;html=1;strokeColor=none;fillColor=none;align=center;verticalAlign=middle;whiteSpace=wrap;rounded=0;" vertex="1" parent="1">
          <mxGeometry x="361.3" y="403" width="34" height="15" as="geometry" />
        </mxCell>
        <mxCell id="0fRn0nSYquljpEjIdXTI-22" value="&lt;font style=&quot;font-size: 8px;&quot;&gt;[layer1, layer2, layer3]&lt;/font&gt;" style="text;html=1;strokeColor=none;fillColor=none;align=center;verticalAlign=middle;whiteSpace=wrap;rounded=0;" vertex="1" parent="1">
          <mxGeometry x="307.6" y="534" width="88.7" height="15" as="geometry" />
        </mxCell>
        <mxCell id="0fRn0nSYquljpEjIdXTI-24" value="&lt;b&gt;Master&lt;/b&gt;" style="text;html=1;strokeColor=none;fillColor=none;align=center;verticalAlign=middle;whiteSpace=wrap;rounded=0;" vertex="1" parent="1">
          <mxGeometry x="278.3" y="698.5" width="60" height="30" as="geometry" />
        </mxCell>
        <mxCell id="0fRn0nSYquljpEjIdXTI-25" value="&lt;b&gt;Server0&lt;/b&gt;" style="text;html=1;strokeColor=none;fillColor=none;align=center;verticalAlign=middle;whiteSpace=wrap;rounded=0;" vertex="1" parent="1">
          <mxGeometry x="394" y="655.5" width="60" height="30" as="geometry" />
        </mxCell>
        <mxCell id="0fRn0nSYquljpEjIdXTI-26" value="&lt;b&gt;Server1&lt;/b&gt;" style="text;html=1;strokeColor=none;fillColor=none;align=center;verticalAlign=middle;whiteSpace=wrap;rounded=0;" vertex="1" parent="1">
          <mxGeometry x="394" y="767" width="60" height="30" as="geometry" />
        </mxCell>
        <mxCell id="0fRn0nSYquljpEjIdXTI-27" style="edgeStyle=orthogonalEdgeStyle;rounded=0;orthogonalLoop=1;jettySize=auto;html=1;" edge="1" parent="1" source="0fRn0nSYquljpEjIdXTI-29" target="0fRn0nSYquljpEjIdXTI-31">
          <mxGeometry relative="1" as="geometry" />
        </mxCell>
        <mxCell id="0fRn0nSYquljpEjIdXTI-29" value="" style="image;points=[];aspect=fixed;html=1;align=center;shadow=0;dashed=0;image=img/lib/allied_telesis/computer_and_terminals/Server_Desktop.svg;" vertex="1" parent="1">
          <mxGeometry x="288.7" y="652" width="42.599999999999994" height="54" as="geometry" />
        </mxCell>
        <mxCell id="0fRn0nSYquljpEjIdXTI-30" value="" style="image;points=[];aspect=fixed;html=1;align=center;shadow=0;dashed=0;image=img/lib/allied_telesis/computer_and_terminals/Server_Desktop.svg;" vertex="1" parent="1">
          <mxGeometry x="404" y="722" width="42.599999999999994" height="54" as="geometry" />
        </mxCell>
        <mxCell id="0fRn0nSYquljpEjIdXTI-31" value="" style="image;points=[];aspect=fixed;html=1;align=center;shadow=0;dashed=0;image=img/lib/allied_telesis/computer_and_terminals/Server_Desktop.svg;" vertex="1" parent="1">
          <mxGeometry x="404" y="611" width="42.599999999999994" height="54" as="geometry" />
        </mxCell>
        <mxCell id="0fRn0nSYquljpEjIdXTI-32" value="Step 3: Start training" style="text;html=1;strokeColor=none;fillColor=none;align=left;verticalAlign=middle;whiteSpace=wrap;rounded=0;" vertex="1" parent="1">
          <mxGeometry x="207.5" y="592" width="342.5" height="30" as="geometry" />
        </mxCell>
        <mxCell id="0fRn0nSYquljpEjIdXTI-33" value="&lt;span style=&quot;font-size: 8px;&quot;&gt;&lt;font color=&quot;#00ff00&quot;&gt;&lt;b&gt;traing data&lt;br&gt;x_pos/x_neg&lt;/b&gt;&lt;/font&gt;&lt;br&gt;&lt;/span&gt;" style="text;html=1;strokeColor=none;fillColor=none;align=center;verticalAlign=middle;whiteSpace=wrap;rounded=0;" vertex="1" parent="1">
          <mxGeometry x="345" y="650" width="50" height="15" as="geometry" />
        </mxCell>
        <mxCell id="0fRn0nSYquljpEjIdXTI-35" value="&lt;font style=&quot;font-size: 8px;&quot;&gt;layer0&lt;/font&gt;" style="rounded=1;whiteSpace=wrap;html=1;" vertex="1" parent="1">
          <mxGeometry x="468" y="637.5" width="40" height="16" as="geometry" />
        </mxCell>
        <mxCell id="0fRn0nSYquljpEjIdXTI-36" value="&lt;font style=&quot;font-size: 8px;&quot;&gt;layer1&lt;/font&gt;" style="rounded=1;whiteSpace=wrap;html=1;" vertex="1" parent="1">
          <mxGeometry x="468" y="727" width="40" height="16" as="geometry" />
        </mxCell>
        <mxCell id="0fRn0nSYquljpEjIdXTI-37" value="&lt;font style=&quot;font-size: 8px;&quot;&gt;layer2&lt;/font&gt;" style="rounded=1;whiteSpace=wrap;html=1;" vertex="1" parent="1">
          <mxGeometry x="468" y="746" width="40" height="16" as="geometry" />
        </mxCell>
        <mxCell id="0fRn0nSYquljpEjIdXTI-38" value="&lt;font style=&quot;font-size: 8px;&quot;&gt;layer3&lt;/font&gt;" style="rounded=1;whiteSpace=wrap;html=1;" vertex="1" parent="1">
          <mxGeometry x="468" y="765" width="40" height="16" as="geometry" />
        </mxCell>
        <mxCell id="0fRn0nSYquljpEjIdXTI-41" value="&lt;span style=&quot;font-size: 8px;&quot;&gt;Node0&lt;/span&gt;" style="text;html=1;strokeColor=none;fillColor=none;align=center;verticalAlign=middle;whiteSpace=wrap;rounded=0;" vertex="1" parent="1">
          <mxGeometry x="454" y="615.5" width="30" height="15" as="geometry" />
        </mxCell>
        <mxCell id="0fRn0nSYquljpEjIdXTI-42" value="&lt;span style=&quot;font-size: 8px;&quot;&gt;Node1&lt;/span&gt;" style="text;html=1;strokeColor=none;fillColor=none;align=center;verticalAlign=middle;whiteSpace=wrap;rounded=0;" vertex="1" parent="1">
          <mxGeometry x="455" y="706" width="30" height="15" as="geometry" />
        </mxCell>
        <mxCell id="0fRn0nSYquljpEjIdXTI-43" value="" style="verticalLabelPosition=bottom;html=1;verticalAlign=top;strokeWidth=2;shape=mxgraph.lean_mapping.physical_pull;pointerEvents=1;rotation=-135;strokeColor=#FF0000;" vertex="1" parent="1">
          <mxGeometry x="518" y="744" width="20" height="20" as="geometry" />
        </mxCell>
        <mxCell id="0fRn0nSYquljpEjIdXTI-44" value="" style="verticalLabelPosition=bottom;html=1;verticalAlign=top;strokeWidth=2;shape=mxgraph.lean_mapping.physical_pull;pointerEvents=1;rotation=-135;strokeColor=#FF0000;" vertex="1" parent="1">
          <mxGeometry x="518" y="635.5" width="20" height="20" as="geometry" />
        </mxCell>
        <mxCell id="0fRn0nSYquljpEjIdXTI-46" value="&lt;span style=&quot;font-size: 8px;&quot;&gt;&lt;font color=&quot;#ffd966&quot;&gt;&lt;b&gt;midle feature&lt;br&gt;h_pos/h_neg&lt;/b&gt;&lt;/font&gt;&lt;br&gt;&lt;/span&gt;" style="text;html=1;strokeColor=none;fillColor=none;align=center;verticalAlign=middle;whiteSpace=wrap;rounded=0;" vertex="1" parent="1">
          <mxGeometry x="456.5" y="679.5" width="63" height="15" as="geometry" />
        </mxCell>
        <mxCell id="0fRn0nSYquljpEjIdXTI-47" value="" style="rounded=0;whiteSpace=wrap;html=1;" vertex="1" parent="1">
          <mxGeometry x="207.5" y="808" width="352.5" height="220" as="geometry" />
        </mxCell>
        <mxCell id="0fRn0nSYquljpEjIdXTI-48" value="" style="rounded=0;whiteSpace=wrap;html=1;" vertex="1" parent="1">
          <mxGeometry x="458" y="941" width="60" height="65" as="geometry" />
        </mxCell>
        <mxCell id="0fRn0nSYquljpEjIdXTI-49" style="edgeStyle=orthogonalEdgeStyle;rounded=0;orthogonalLoop=1;jettySize=auto;html=1;entryX=0.5;entryY=0;entryDx=0;entryDy=0;" edge="1" source="0fRn0nSYquljpEjIdXTI-50" target="0fRn0nSYquljpEjIdXTI-48" parent="1">
          <mxGeometry relative="1" as="geometry" />
        </mxCell>
        <mxCell id="0fRn0nSYquljpEjIdXTI-50" value="" style="rounded=0;whiteSpace=wrap;html=1;" vertex="1" parent="1">
          <mxGeometry x="458" y="850.5" width="60" height="30" as="geometry" />
        </mxCell>
        <mxCell id="0fRn0nSYquljpEjIdXTI-51" value="&lt;b&gt;Master&lt;/b&gt;" style="text;html=1;strokeColor=none;fillColor=none;align=center;verticalAlign=middle;whiteSpace=wrap;rounded=0;" vertex="1" parent="1">
          <mxGeometry x="280.3" y="918.5" width="60" height="30" as="geometry" />
        </mxCell>
        <mxCell id="0fRn0nSYquljpEjIdXTI-52" value="&lt;b&gt;Server0&lt;/b&gt;" style="text;html=1;strokeColor=none;fillColor=none;align=center;verticalAlign=middle;whiteSpace=wrap;rounded=0;" vertex="1" parent="1">
          <mxGeometry x="394" y="875.5" width="60" height="30" as="geometry" />
        </mxCell>
        <mxCell id="0fRn0nSYquljpEjIdXTI-53" value="&lt;b&gt;Server1&lt;/b&gt;" style="text;html=1;strokeColor=none;fillColor=none;align=center;verticalAlign=middle;whiteSpace=wrap;rounded=0;" vertex="1" parent="1">
          <mxGeometry x="394" y="987" width="60" height="30" as="geometry" />
        </mxCell>
        <mxCell id="0fRn0nSYquljpEjIdXTI-54" style="edgeStyle=orthogonalEdgeStyle;rounded=0;orthogonalLoop=1;jettySize=auto;html=1;" edge="1" source="0fRn0nSYquljpEjIdXTI-55" target="0fRn0nSYquljpEjIdXTI-57" parent="1">
          <mxGeometry relative="1" as="geometry" />
        </mxCell>
        <mxCell id="0fRn0nSYquljpEjIdXTI-55" value="" style="image;points=[];aspect=fixed;html=1;align=center;shadow=0;dashed=0;image=img/lib/allied_telesis/computer_and_terminals/Server_Desktop.svg;" vertex="1" parent="1">
          <mxGeometry x="288.7" y="872" width="42.599999999999994" height="54" as="geometry" />
        </mxCell>
        <mxCell id="0fRn0nSYquljpEjIdXTI-56" value="" style="image;points=[];aspect=fixed;html=1;align=center;shadow=0;dashed=0;image=img/lib/allied_telesis/computer_and_terminals/Server_Desktop.svg;" vertex="1" parent="1">
          <mxGeometry x="404" y="942" width="42.599999999999994" height="54" as="geometry" />
        </mxCell>
        <mxCell id="0fRn0nSYquljpEjIdXTI-57" value="" style="image;points=[];aspect=fixed;html=1;align=center;shadow=0;dashed=0;image=img/lib/allied_telesis/computer_and_terminals/Server_Desktop.svg;" vertex="1" parent="1">
          <mxGeometry x="404" y="831" width="42.599999999999994" height="54" as="geometry" />
        </mxCell>
        <mxCell id="0fRn0nSYquljpEjIdXTI-58" value="Step 4: Inference" style="text;html=1;strokeColor=none;fillColor=none;align=left;verticalAlign=middle;whiteSpace=wrap;rounded=0;" vertex="1" parent="1">
          <mxGeometry x="207.5" y="812" width="342.5" height="30" as="geometry" />
        </mxCell>
        <mxCell id="0fRn0nSYquljpEjIdXTI-59" value="&lt;span style=&quot;font-size: 8px;&quot;&gt;&lt;font color=&quot;#00ff00&quot;&gt;&lt;b&gt;text data&lt;br&gt;x_pos/x_neg&lt;/b&gt;&lt;/font&gt;&lt;br&gt;&lt;/span&gt;" style="text;html=1;strokeColor=none;fillColor=none;align=center;verticalAlign=middle;whiteSpace=wrap;rounded=0;" vertex="1" parent="1">
          <mxGeometry x="345" y="870" width="50" height="15" as="geometry" />
        </mxCell>
        <mxCell id="0fRn0nSYquljpEjIdXTI-60" value="&lt;font style=&quot;font-size: 8px;&quot;&gt;layer0&lt;/font&gt;" style="rounded=1;whiteSpace=wrap;html=1;" vertex="1" parent="1">
          <mxGeometry x="468" y="857.5" width="40" height="16" as="geometry" />
        </mxCell>
        <mxCell id="0fRn0nSYquljpEjIdXTI-61" value="&lt;font style=&quot;font-size: 8px;&quot;&gt;layer1&lt;/font&gt;" style="rounded=1;whiteSpace=wrap;html=1;" vertex="1" parent="1">
          <mxGeometry x="468" y="947" width="40" height="16" as="geometry" />
        </mxCell>
        <mxCell id="0fRn0nSYquljpEjIdXTI-62" value="&lt;font style=&quot;font-size: 8px;&quot;&gt;layer2&lt;/font&gt;" style="rounded=1;whiteSpace=wrap;html=1;" vertex="1" parent="1">
          <mxGeometry x="468" y="966" width="40" height="16" as="geometry" />
        </mxCell>
        <mxCell id="0fRn0nSYquljpEjIdXTI-63" value="&lt;font style=&quot;font-size: 8px;&quot;&gt;layer3&lt;/font&gt;" style="rounded=1;whiteSpace=wrap;html=1;" vertex="1" parent="1">
          <mxGeometry x="468" y="985" width="40" height="16" as="geometry" />
        </mxCell>
        <mxCell id="0fRn0nSYquljpEjIdXTI-64" value="&lt;span style=&quot;font-size: 8px;&quot;&gt;Node0&lt;/span&gt;" style="text;html=1;strokeColor=none;fillColor=none;align=center;verticalAlign=middle;whiteSpace=wrap;rounded=0;" vertex="1" parent="1">
          <mxGeometry x="454" y="835.5" width="30" height="15" as="geometry" />
        </mxCell>
        <mxCell id="0fRn0nSYquljpEjIdXTI-65" value="&lt;span style=&quot;font-size: 8px;&quot;&gt;Node1&lt;/span&gt;" style="text;html=1;strokeColor=none;fillColor=none;align=center;verticalAlign=middle;whiteSpace=wrap;rounded=0;" vertex="1" parent="1">
          <mxGeometry x="455" y="926" width="30" height="15" as="geometry" />
        </mxCell>
        <mxCell id="0fRn0nSYquljpEjIdXTI-68" value="&lt;span style=&quot;font-size: 8px;&quot;&gt;&lt;font color=&quot;#ffd966&quot;&gt;&lt;b&gt;midle feature&lt;br&gt;h_pos/h_neg&lt;/b&gt;&lt;/font&gt;&lt;br&gt;&lt;/span&gt;" style="text;html=1;strokeColor=none;fillColor=none;align=center;verticalAlign=middle;whiteSpace=wrap;rounded=0;" vertex="1" parent="1">
          <mxGeometry x="456.5" y="899.5" width="63" height="15" as="geometry" />
        </mxCell>
        <mxCell id="0fRn0nSYquljpEjIdXTI-69" style="edgeStyle=orthogonalEdgeStyle;rounded=0;orthogonalLoop=1;jettySize=auto;html=1;strokeColor=#FF0000;" edge="1" parent="1">
          <mxGeometry relative="1" as="geometry">
            <mxPoint x="313.2" y="1265" as="sourcePoint" />
            <mxPoint x="358.2" y="1265" as="targetPoint" />
          </mxGeometry>
        </mxCell>
        <mxCell id="0fRn0nSYquljpEjIdXTI-70" style="edgeStyle=orthogonalEdgeStyle;rounded=0;orthogonalLoop=1;jettySize=auto;html=1;strokeColor=#000000;" edge="1" parent="1">
          <mxGeometry relative="1" as="geometry">
            <mxPoint x="204.2" y="1265" as="sourcePoint" />
            <mxPoint x="249.2" y="1265" as="targetPoint" />
          </mxGeometry>
        </mxCell>
        <mxCell id="0fRn0nSYquljpEjIdXTI-71" value=": Forward" style="text;html=1;strokeColor=none;fillColor=none;align=center;verticalAlign=middle;whiteSpace=wrap;rounded=0;" vertex="1" parent="1">
          <mxGeometry x="246.2" y="1250" width="60" height="30" as="geometry" />
        </mxCell>
        <mxCell id="0fRn0nSYquljpEjIdXTI-72" value=": Backpropagation" style="text;html=1;strokeColor=none;fillColor=none;align=center;verticalAlign=middle;whiteSpace=wrap;rounded=0;" vertex="1" parent="1">
          <mxGeometry x="359.2" y="1250" width="100" height="30" as="geometry" />
        </mxCell>
        <mxCell id="0fRn0nSYquljpEjIdXTI-73" value="Nodex" style="text;html=1;strokeColor=none;fillColor=none;align=center;verticalAlign=middle;whiteSpace=wrap;rounded=0;" vertex="1" parent="1">
          <mxGeometry x="190" y="1332" width="60" height="30" as="geometry" />
        </mxCell>
        <mxCell id="0fRn0nSYquljpEjIdXTI-74" value="" style="rounded=0;whiteSpace=wrap;html=1;" vertex="1" parent="1">
          <mxGeometry x="240" y="1337" width="40" height="20" as="geometry" />
        </mxCell>
        <mxCell id="0fRn0nSYquljpEjIdXTI-75" value=": AI computer node from different computer server&lt;br&gt;Inspired by A ROS node, pub/sub concept" style="text;html=1;strokeColor=none;fillColor=none;align=center;verticalAlign=middle;whiteSpace=wrap;rounded=0;" vertex="1" parent="1">
          <mxGeometry x="282" y="1337" width="270" height="30" as="geometry" />
        </mxCell>
        <mxCell id="0fRn0nSYquljpEjIdXTI-76" value="Layerx" style="rounded=1;whiteSpace=wrap;html=1;" vertex="1" parent="1">
          <mxGeometry x="200" y="1384" width="60" height="30" as="geometry" />
        </mxCell>
        <mxCell id="0fRn0nSYquljpEjIdXTI-77" value=": Model Layer" style="text;html=1;strokeColor=none;fillColor=none;align=center;verticalAlign=middle;whiteSpace=wrap;rounded=0;" vertex="1" parent="1">
          <mxGeometry x="265" y="1384" width="75" height="30" as="geometry" />
        </mxCell>
        <mxCell id="0fRn0nSYquljpEjIdXTI-80" value="" style="image;points=[];aspect=fixed;html=1;align=center;shadow=0;dashed=0;image=img/lib/allied_telesis/computer_and_terminals/Server_Desktop.svg;" vertex="1" parent="1">
          <mxGeometry x="202.64" y="1280" width="34.71" height="44" as="geometry" />
        </mxCell>
        <mxCell id="0fRn0nSYquljpEjIdXTI-81" value=": Computer server" style="text;html=1;strokeColor=none;fillColor=none;align=center;verticalAlign=middle;whiteSpace=wrap;rounded=0;" vertex="1" parent="1">
          <mxGeometry x="241.7" y="1287" width="100" height="30" as="geometry" />
        </mxCell>
        <mxCell id="0fRn0nSYquljpEjIdXTI-82" value="" style="rounded=0;whiteSpace=wrap;html=1;" vertex="1" parent="1">
          <mxGeometry x="207.5" y="1028" width="352.5" height="220" as="geometry" />
        </mxCell>
        <mxCell id="0fRn0nSYquljpEjIdXTI-83" value="" style="rounded=0;whiteSpace=wrap;html=1;" vertex="1" parent="1">
          <mxGeometry x="458" y="1161" width="60" height="65" as="geometry" />
        </mxCell>
        <mxCell id="0fRn0nSYquljpEjIdXTI-85" value="" style="rounded=0;whiteSpace=wrap;html=1;" vertex="1" parent="1">
          <mxGeometry x="458" y="1070.5" width="60" height="30" as="geometry" />
        </mxCell>
        <mxCell id="0fRn0nSYquljpEjIdXTI-86" value="&lt;b&gt;Master&lt;/b&gt;" style="text;html=1;strokeColor=none;fillColor=none;align=center;verticalAlign=middle;whiteSpace=wrap;rounded=0;" vertex="1" parent="1">
          <mxGeometry x="280.3" y="1138.5" width="60" height="30" as="geometry" />
        </mxCell>
        <mxCell id="0fRn0nSYquljpEjIdXTI-87" value="&lt;b&gt;Server0&lt;/b&gt;" style="text;html=1;strokeColor=none;fillColor=none;align=center;verticalAlign=middle;whiteSpace=wrap;rounded=0;" vertex="1" parent="1">
          <mxGeometry x="394" y="1095.5" width="60" height="30" as="geometry" />
        </mxCell>
        <mxCell id="0fRn0nSYquljpEjIdXTI-88" value="&lt;b&gt;Server1&lt;/b&gt;" style="text;html=1;strokeColor=none;fillColor=none;align=center;verticalAlign=middle;whiteSpace=wrap;rounded=0;" vertex="1" parent="1">
          <mxGeometry x="394" y="1207" width="60" height="30" as="geometry" />
        </mxCell>
        <mxCell id="0fRn0nSYquljpEjIdXTI-90" value="" style="image;points=[];aspect=fixed;html=1;align=center;shadow=0;dashed=0;image=img/lib/allied_telesis/computer_and_terminals/Server_Desktop.svg;" vertex="1" parent="1">
          <mxGeometry x="288.7" y="1092" width="42.599999999999994" height="54" as="geometry" />
        </mxCell>
        <mxCell id="0fRn0nSYquljpEjIdXTI-91" value="" style="image;points=[];aspect=fixed;html=1;align=center;shadow=0;dashed=0;image=img/lib/allied_telesis/computer_and_terminals/Server_Desktop.svg;" vertex="1" parent="1">
          <mxGeometry x="404" y="1162" width="42.599999999999994" height="54" as="geometry" />
        </mxCell>
        <mxCell id="0fRn0nSYquljpEjIdXTI-92" value="" style="image;points=[];aspect=fixed;html=1;align=center;shadow=0;dashed=0;image=img/lib/allied_telesis/computer_and_terminals/Server_Desktop.svg;" vertex="1" parent="1">
          <mxGeometry x="404" y="1051" width="42.599999999999994" height="54" as="geometry" />
        </mxCell>
        <mxCell id="0fRn0nSYquljpEjIdXTI-93" value="Step 5: Saving Model weight" style="text;html=1;strokeColor=none;fillColor=none;align=left;verticalAlign=middle;whiteSpace=wrap;rounded=0;" vertex="1" parent="1">
          <mxGeometry x="207.5" y="1032" width="342.5" height="30" as="geometry" />
        </mxCell>
        <mxCell id="0fRn0nSYquljpEjIdXTI-95" value="&lt;font style=&quot;font-size: 8px;&quot;&gt;layer0&lt;/font&gt;" style="rounded=1;whiteSpace=wrap;html=1;" vertex="1" parent="1">
          <mxGeometry x="468" y="1077.5" width="40" height="16" as="geometry" />
        </mxCell>
        <mxCell id="0fRn0nSYquljpEjIdXTI-96" value="&lt;font style=&quot;font-size: 8px;&quot;&gt;layer1&lt;/font&gt;" style="rounded=1;whiteSpace=wrap;html=1;" vertex="1" parent="1">
          <mxGeometry x="468" y="1167" width="40" height="16" as="geometry" />
        </mxCell>
        <mxCell id="0fRn0nSYquljpEjIdXTI-97" value="&lt;font style=&quot;font-size: 8px;&quot;&gt;layer2&lt;/font&gt;" style="rounded=1;whiteSpace=wrap;html=1;" vertex="1" parent="1">
          <mxGeometry x="468" y="1186" width="40" height="16" as="geometry" />
        </mxCell>
        <mxCell id="0fRn0nSYquljpEjIdXTI-98" value="&lt;font style=&quot;font-size: 8px;&quot;&gt;layer3&lt;/font&gt;" style="rounded=1;whiteSpace=wrap;html=1;" vertex="1" parent="1">
          <mxGeometry x="468" y="1205" width="40" height="16" as="geometry" />
        </mxCell>
        <mxCell id="0fRn0nSYquljpEjIdXTI-99" value="&lt;span style=&quot;font-size: 8px;&quot;&gt;Node0&lt;/span&gt;" style="text;html=1;strokeColor=none;fillColor=none;align=center;verticalAlign=middle;whiteSpace=wrap;rounded=0;" vertex="1" parent="1">
          <mxGeometry x="454" y="1055.5" width="30" height="15" as="geometry" />
        </mxCell>
        <mxCell id="0fRn0nSYquljpEjIdXTI-100" value="&lt;span style=&quot;font-size: 8px;&quot;&gt;Node1&lt;/span&gt;" style="text;html=1;strokeColor=none;fillColor=none;align=center;verticalAlign=middle;whiteSpace=wrap;rounded=0;" vertex="1" parent="1">
          <mxGeometry x="455" y="1146" width="30" height="15" as="geometry" />
        </mxCell>
        <mxCell id="0fRn0nSYquljpEjIdXTI-105" value="&lt;span style=&quot;font-size: 8px;&quot;&gt;Auto Saved weight&lt;/span&gt;" style="text;html=1;strokeColor=none;fillColor=none;align=center;verticalAlign=middle;whiteSpace=wrap;rounded=0;" vertex="1" parent="1">
          <mxGeometry x="451" y="1097" width="78" height="15" as="geometry" />
        </mxCell>
        <mxCell id="0fRn0nSYquljpEjIdXTI-107" value="&lt;span style=&quot;font-size: 8px;&quot;&gt;Auto Saved weight&lt;/span&gt;" style="text;html=1;strokeColor=none;fillColor=none;align=center;verticalAlign=middle;whiteSpace=wrap;rounded=0;" vertex="1" parent="1">
          <mxGeometry x="451" y="1222" width="78" height="15" as="geometry" />
        </mxCell>
        <mxCell id="0fRn0nSYquljpEjIdXTI-108" value="" style="endArrow=classic;startArrow=classic;html=1;rounded=0;entryX=-0.054;entryY=0.552;entryDx=0;entryDy=0;entryPerimeter=0;" edge="1" parent="1" source="0fRn0nSYquljpEjIdXTI-90" target="0fRn0nSYquljpEjIdXTI-92">
          <mxGeometry width="50" height="50" relative="1" as="geometry">
            <mxPoint x="340" y="1140" as="sourcePoint" />
            <mxPoint x="390" y="1090" as="targetPoint" />
          </mxGeometry>
        </mxCell>
        <mxCell id="0fRn0nSYquljpEjIdXTI-109" value="" style="endArrow=classic;startArrow=classic;html=1;rounded=0;entryX=0.017;entryY=0.626;entryDx=0;entryDy=0;entryPerimeter=0;exitX=0.998;exitY=0.422;exitDx=0;exitDy=0;exitPerimeter=0;" edge="1" parent="1" source="0fRn0nSYquljpEjIdXTI-90" target="0fRn0nSYquljpEjIdXTI-91">
          <mxGeometry width="50" height="50" relative="1" as="geometry">
            <mxPoint x="341" y="1120" as="sourcePoint" />
            <mxPoint x="412" y="1091" as="targetPoint" />
          </mxGeometry>
        </mxCell>
        <mxCell id="0fRn0nSYquljpEjIdXTI-111" value="&lt;span style=&quot;font-size: 8px;&quot;&gt;&lt;font color=&quot;#00ff00&quot;&gt;Request weight&lt;/font&gt;&lt;/span&gt;" style="text;html=1;strokeColor=none;fillColor=none;align=center;verticalAlign=middle;whiteSpace=wrap;rounded=0;" vertex="1" parent="1">
          <mxGeometry x="338.3" y="1070.5" width="49.7" height="15" as="geometry" />
        </mxCell>
        <mxCell id="0fRn0nSYquljpEjIdXTI-112" value="&lt;span style=&quot;font-size: 8px;&quot;&gt;&lt;font color=&quot;#00ff00&quot;&gt;Request weight&lt;/font&gt;&lt;/span&gt;" style="text;html=1;strokeColor=none;fillColor=none;align=center;verticalAlign=middle;whiteSpace=wrap;rounded=0;" vertex="1" parent="1">
          <mxGeometry x="358.90000000000003" y="1138.5" width="49.7" height="15" as="geometry" />
        </mxCell>
        <mxCell id="0fRn0nSYquljpEjIdXTI-114" value="&lt;span style=&quot;font-size: 8px;&quot;&gt;&lt;font color=&quot;#0000ff&quot;&gt;Response weight&lt;/font&gt;&lt;/span&gt;" style="text;html=1;strokeColor=none;fillColor=none;align=center;verticalAlign=middle;whiteSpace=wrap;rounded=0;" vertex="1" parent="1">
          <mxGeometry x="331.30000000000007" y="1161" width="49.7" height="15" as="geometry" />
        </mxCell>
        <mxCell id="0fRn0nSYquljpEjIdXTI-116" value="&lt;span style=&quot;font-size: 8px;&quot;&gt;&lt;font color=&quot;#0000ff&quot;&gt;Response weight&lt;/font&gt;&lt;/span&gt;" style="text;html=1;strokeColor=none;fillColor=none;align=center;verticalAlign=middle;whiteSpace=wrap;rounded=0;" vertex="1" parent="1">
          <mxGeometry x="350.00000000000006" y="1097" width="49.7" height="15" as="geometry" />
        </mxCell>
      </root>
    </mxGraphModel>
  </diagram>
</mxfile>
